<?xml version="1.0" encoding="UTF-8"?>
<svg width="41px" height="46px" viewBox="0 0 41 46" version="1.1" xmlns="http://www.w3.org/2000/svg" xmlns:xlink="http://www.w3.org/1999/xlink">
    <!-- Generator: Sketch 49.1 (51147) - http://www.bohemiancoding.com/sketch -->
    <title>logo</title>
    <desc>Created with Sketch.</desc>
    <defs></defs>
    <g id="Page-1" stroke="none" stroke-width="1" fill="none" fill-rule="evenodd">
        <g id="PDE--v1.3.1-表单元素" transform="translate(-520.000000, -204.000000)" fill="#C3A571">
            <g id="Group-3" transform="translate(500.000000, 190.000000)">
                <g id="申请-底">
                    <g id="logo" transform="translate(20.000000, 14.000000)">
                        <path d="M13.5339092,38.5008546 C13.6878453,38.3784842 13.8416947,38.3891266 14.1098202,38.5008546 L14.6857312,38.5008546 L15.2616423,38.5008546 C15.7120737,38.6460956 16.1423052,38.7096832 16.7014198,38.8269044 L17.2773309,38.8269044 C17.407913,39.0261143 17.6213518,39.0695105 17.8532419,39.1529542 L18.4291529,39.479004 C18.6584955,39.4044754 18.8697879,39.4585701 19.0050639,39.479004 L20.156886,40.1311036 C20.4864764,40.0766655 20.6781823,40.1551705 20.732797,40.1311036 L21.5966636,40.4571534 C22.2358431,40.6974731 23.0290951,40.9117421 23.9003077,41.109253 C24.6315633,41.2338991 25.4401087,41.3466088 26.2039518,41.4353028 C26.9073006,41.4431936 27.5643332,41.4469502 28.2196404,41.4353028 L28.2196404,33.9361575 L19.580975,38.1748048 C18.3115004,38.7643182 16.3580883,39.3777054 16.4134643,37.1966554 L16.4134643,33.9361575 C16.4634421,33.5846516 16.8686587,33.0214663 17.2773309,32.6319583 L18.7171084,32.3059085 L18.7171084,31.0017093 C18.6374517,30.826673 18.6174315,30.6143417 18.7171084,30.3496097 L18.7171084,29.6975101 L13.5339092,32.6319583 L13.5339092,38.5008546 Z M13.5339092,39.8050538 L13.5339092,46 L12.3820871,46 L12.3820871,39.8050538 L11.5182206,39.479004 L10.9423095,39.8050538 L10.654354,39.8050538 L10.3663985,39.8050538 L10.078443,39.8050538 L9.50253197,39.8050538 L9.21457646,39.8050538 C9.20032776,39.7709345 9.0997849,39.7909527 8.92662094,39.8050538 C8.5947916,39.873452 8.18564917,39.9165215 7.77479889,40.1311036 L7.19888786,40.1311036 C6.98275432,40.1998097 6.78636059,40.2660822 6.62297683,40.4571534 C4.99468673,40.7745754 3.45356569,41.4759714 2.0156886,42.4134522 C1.88362235,42.4172829 1.76605423,42.3764882 1.72773309,42.4134522 C1.67006931,42.171453 1.69621045,42.052102 1.72773309,42.0874024 C4.53111709,39.7219505 7.95238972,38.4369929 11.5182206,38.1748048 C11.7468488,38.2597847 12.0821499,38.254664 12.3820871,38.1748048 L12.3820871,33.2840579 L1.15182206,40.1311036 C0.504755028,40.3322811 0,40.0459609 0,39.479004 L0,36.2185061 C0,35.4367101 0.502863709,34.586702 1.15182206,34.2622073 L8.92662094,29.6975101 L8.92662094,28.3933109 L4.60728823,31.0017093 C3.26722417,31.5329169 2.25771412,32.0011347 2.30364411,31.3277591 L2.30364411,28.7193607 C2.25771412,28.001203 2.97530098,27.1695369 4.0313772,26.4370121 L4.0313772,24.4807133 C2.70279564,25.1250866 1.69328559,24.9397714 1.72773309,24.1546635 L1.72773309,21.2202153 C1.69328559,20.4637157 2.69901301,19.3413457 4.0313772,18.6118169 L6.33502131,17.6336676 L6.33502131,15.6773688 C6.20871382,14.9546674 6.76451056,14.1449588 7.48684337,13.72107 L8.92662094,12.7429206 L8.92662094,11.4387214 L7.19888786,12.4168708 C6.71346885,12.876171 6.20871382,12.5898508 6.33502131,11.7647712 L6.33502131,9.48242259 C6.20871382,8.61911417 6.71157753,7.76910607 7.19888786,7.5261238 L10.078443,5.89587481 L10.078443,2.96142663 C10.1597135,2.9880319 10.3867504,2.15570009 10.654354,1.98327723 L14.1098202,0.0269784448 C14.5107867,-0.0727816822 14.7379785,0.119395786 14.6857312,0.353028243 L14.6857312,3.28747643 L15.8375533,2.63537683 C16.4281009,2.38191467 16.9328559,2.66823485 16.9893753,3.28747643 L16.9893753,5.89587481 C16.9328559,6.63897146 16.4299922,7.48897956 15.8375533,7.8521736 L15.2616423,8.1782234 C15.3015426,8.13522882 15.3024071,8.15546885 15.2616423,8.1782234 L15.2616423,9.48242259 L16.7014198,8.5042732 C17.5038258,8.14392309 18.0617129,8.32692145 18.1411974,8.830323 L18.1411974,11.1126716 C18.0617129,11.285986 18.0455415,11.396656 18.1411974,11.4387214 L21.0207525,10.1345222 C22.1320597,9.35100678 23.1415697,9.49600033 23.0364411,10.460572 L23.0364411,14.0471198 C23.1415697,15.0626258 22.7002708,15.6665925 21.3087081,16.3294684 L21.0207525,16.6555182 L21.0207525,16.981568 C22.1320597,16.3952227 23.1415697,16.5284652 23.0364411,17.3076178 L23.0364411,18.9378667 L24.7641742,17.9597173 L24.7641742,13.72107 C24.9106038,13.4290949 25.2019512,12.9734023 25.6280408,12.7429206 L25.9159963,12.7429206 L25.9159963,8.830323 C25.9637124,8.61268643 26.2156232,8.23409325 26.4919073,8.1782234 L30.5232845,6.54797441 C30.7914863,6.53443708 31.0435691,6.73007369 31.0991955,7.20007401 L31.0991955,10.460572 L31.6751066,10.460572 C32.08862,10.1417166 32.3787212,10.2695421 32.2510176,10.460572 L32.5389731,14.6992194 L36.2823948,12.7429206 C36.6040483,12.6957733 36.8941495,12.8235989 36.8583058,13.0689704 L36.8583058,17.6336676 C36.9761828,17.8717504 36.6919413,18.3107421 36.2823948,18.6118169 L32.8269286,20.2420659 L32.8269286,22.1983647 L35.9944393,20.5681157 C36.2909668,20.3529129 36.6056556,20.4870746 36.5703503,20.8941655 L36.5703503,23.5025639 L38.5860389,22.5244145 C39.0013452,22.2487372 39.4045376,22.4077341 39.4499055,22.8504643 L39.4499055,27.4151615 C39.5185503,27.8927003 39.1235018,28.4387441 38.5860389,28.7193607 L29.3714625,33.2840579 L29.3714625,41.109253 C29.9393734,41.1870617 30.5259531,41.084189 31.0991955,40.7832032 C31.9026387,40.7503109 32.6871411,40.4915905 33.4028397,40.1311036 C34.2269216,39.8678409 34.9748265,39.4835516 35.7064838,39.1529542 C37.1606284,38.1850969 38.510852,37.0793934 39.737861,35.8924563 C39.8306447,35.7633469 39.9294448,35.7703229 40.0258165,35.8924563 C40.0395058,35.9115121 40.0381652,36.0120582 40.0258165,36.2185061 C38.8654332,37.5187327 37.5569013,38.7926196 35.9944393,39.8050538 C34.643035,40.861321 33.0405158,41.6591685 31.3871511,42.0874024 C30.6993297,42.3448676 30.0279407,42.5010531 29.3714625,42.739502 L29.3714625,44.6958008 L28.2196404,44.6958008 L28.2196404,42.739502 C27.5489801,42.8039135 26.8738216,42.8202653 26.2039518,42.739502 C25.3314251,42.7697249 24.4647456,42.6763065 23.6123522,42.4134522 C22.7517633,42.3572282 21.904254,42.1391509 21.0207525,41.7613526 L20.4448415,41.7613526 C20.2462351,41.5677216 20.0423342,41.4855256 19.8689305,41.4353028 L18.7171084,41.109253 C18.2785442,40.8144602 17.8816009,40.7011752 17.5652864,40.4571534 C17.2940284,40.4979599 17.0932108,40.4544355 16.9893753,40.4571534 L16.4134643,40.1311036 C16.1001154,40.1796399 15.8978232,40.1485509 15.8375533,40.1311036 L14.9736867,40.1311036 L14.9736867,39.8050538 L14.6857312,39.8050538 L14.3977757,39.8050538 L13.8218647,39.8050538 C13.7710298,39.7668075 13.6587035,39.7548799 13.5339092,39.8050538 Z" id="正常"></path>
                    </g>
                </g>
            </g>
        </g>
    </g>
</svg>