<?xml version="1.0" encoding="UTF-8"?>
<svg width="37px" height="37px" viewBox="0 0 37 37" version="1.1" xmlns="http://www.w3.org/2000/svg" xmlns:xlink="http://www.w3.org/1999/xlink">
    <!-- Generator: Sketch 49.1 (51147) - http://www.bohemiancoding.com/sketch -->
    <title>流程模型icon</title>
    <desc>Created with Sketch.</desc>
    <defs></defs>
    <g id="Page-1" stroke="none" stroke-width="1" fill="none" fill-rule="evenodd">
        <g id="PDE--v1.3.1-表单元素" transform="translate(-19.000000, -17.000000)" fill="#FFFFFF" fill-rule="nonzero">
            <g id="流程模型icon" transform="translate(19.000000, 17.000000)">
                <path d="M36.9904505,11.0105728 L36.9904505,23.549656 C36.9904505,24.4777297 36.2374644,25.230949 35.3096779,25.230949 C34.381051,25.230949 33.6289053,24.4777297 33.6289053,23.549656 L33.6289053,13.6493622 L20.1827242,20.8015826 L20.1827242,27.4922881 L19.6053788,27.8260248 L20.1827242,28.8255535 L20.1827242,32.2318531 L21.6870157,31.4315576 L21.7004619,31.4550957 C21.9811509,31.2440934 22.3257093,31.1154745 22.7038832,31.1154745 C23.6316697,31.1154745 24.3846558,31.8678531 24.3846558,32.7967675 C24.3846558,33.6340514 23.7703334,34.3233816 22.9686049,34.4511598 L20.1037279,35.9752519 C20.0810375,35.987021 20.0566663,35.9929055 20.0339759,36.0038339 C19.7709349,36.5897645 19.1851857,37 18.5019516,37 C18.0431007,37 17.6279498,36.8150578 17.3245704,36.5166283 C17.2859126,36.4998153 17.2455741,36.4888869 17.2077567,36.4678708 L0.954685335,27.6528516 C0.677357881,27.5023758 0.465580519,27.2829671 0.315991733,27.0299325 C0.30506673,27.0139602 0.294982106,26.9979879 0.284057066,26.981175 C0.274812821,26.9643621 0.264728197,26.9475492 0.256324332,26.9298956 C0.105054787,26.6777016 0.0134526815,26.3868379 0.0134526815,26.0715955 L0.0134526815,11.0046883 C-0.0714263542,10.3178801 0.248760845,9.61762156 0.877369824,9.26707195 L17.1657374,0.207424627 C17.8405676,-0.168344381 18.6507,-0.0153466866 19.1633356,0.51930449 C19.4675555,0.498288321 19.7801792,0.557133556 20.0684317,0.713493807 L35.9307234,9.36794953 C35.9912312,9.38980633 36.0399736,9.43436063 36.0979603,9.46378323 C36.1559469,9.4940465 36.2139336,9.52346914 36.2668779,9.5604576 C36.4811764,9.70000492 36.6753057,9.87065615 36.8072463,10.1085591 C36.9475908,10.363275 37.0047371,10.6381664 36.9996948,10.9088546 C37.0005352,10.9424804 36.9912909,10.9769469 36.9904505,11.0105728 Z M3.37499793,25.1401592 L16.821179,32.4327676 L16.821179,21.1269128 L3.37499793,13.8334637 L3.37499793,25.1401592 Z M18.4843035,3.65323462 C18.4111899,3.61372424 18.3481609,3.56496675 18.2834511,3.51620926 L5.01459163,10.8979262 L18.3237897,18.1165577 C18.387659,18.0694815 18.450688,18.0215646 18.5238017,17.9828949 L31.8027458,10.919783 L18.4843035,3.65323462 Z" id="Shape"></path>
            </g>
        </g>
    </g>
</svg>